# Wavefront OBJ file
# Exported by Misfit Model 3D 1.2.4
# Wed Oct 15 21:57:48 2014

mtllib bullet.mtl

# 61 Vertices
v -3.785852 -13.84946 -0.027779
v -3.046446 -13.850402 2.238808
v -1.110659 -13.852872 3.639637
v 1.282107 -13.855918 3.639641
v 3.217899 -13.858387 2.238816
v 3.95731 -13.859323 -0.027769
v 3.21791 -13.858387 -2.294358
v 1.282126 -13.855918 -3.695193
v -1.11064 -13.852872 -3.695203
v -3.046434 -13.850402 -2.294383
v -3.841992 -6.271799 -0.027779
v -3.091805 -6.272741 2.366537
v -1.127791 -6.275207 3.846307
v 1.299865 -6.27825 3.846311
v 3.263883 -6.28072 2.366546
v 4.014075 -6.281657 -0.027768
v 3.263895 -6.28072 -2.422087
v 1.299885 -6.27825 -3.901862
v -1.127771 -6.275202 -3.901872
v -3.091793 -6.272741 -2.422112
v -3.697583 3.500788 -0.027781
v -2.974932 3.500788 2.143159
v -1.083007 3.500788 3.484875
v 1.255542 3.500788 3.484878
v 3.147471 3.500788 2.143167
v 3.870129 3.500788 -0.027771
v 3.147483 3.500788 -2.198713
v 1.255562 3.500788 -3.540434
v -1.082988 3.500788 -3.540443
v -2.97492 3.500788 -2.198736
v -1.678225 10.226759 -0.02778
v -1.350849 10.226759 1.082626
v -0.493766 10.226759 1.768895
v 0.565647 10.226759 1.768896
v 1.422732 10.226759 1.082629
v 1.750111 10.226759 -0.027775
v 1.422737 10.226759 -1.138181
v 0.565656 10.226759 -1.824453
v -0.493757 10.226759 -1.824457
v -1.350843 10.226759 -1.138193
v -1.581415 15.658709 -0.02778
v -1.269647 15.658709 0.871865
v -0.453425 15.658709 1.427877
v 0.555481 15.658709 1.427877
v 1.371704 15.658709 0.871868
v 1.683476 15.658709 -0.027776
v 1.371709 15.658709 -0.927422
v 0.55549 15.658709 -1.483435
v -0.453417 15.658709 -1.483438
v -1.269641 15.658709 -0.927431
v 0.032984 21.360958 -0.016174
v 0.041951 21.360014 0.004276
v 0.065425 21.35755 0.016915
v 0.094442 21.3545 0.016915
v 0.117916 21.352036 0.004276
v 0.126883 21.351095 -0.016174
v 0.117917 21.352037 -0.036625
v 0.094442 21.3545 -0.049264
v 0.065426 21.357552 -0.049264
v 0.041951 21.360014 -0.036625
v -0.01613 -14.814368 0.009779

# 330 Texture Coordinates
vt 0.908888 0.635573
vt 0.911681 0.635568
vt 0.908676 0.675799
vt 0.911681 0.635568
vt 0.911509 0.675794
vt 0.908676 0.675799
vt 0.911681 0.635568
vt 0.918992 0.635554
vt 0.911509 0.675794
vt 0.918992 0.635554
vt 0.918927 0.675781
vt 0.911509 0.675794
vt 0.918992 0.635554
vt 0.92803 0.635538
vt 0.918927 0.675781
vt 0.92803 0.635538
vt 0.928097 0.675765
vt 0.918927 0.675781
vt 0.92803 0.635538
vt 0.935341 0.635525
vt 0.928097 0.675765
vt 0.935341 0.635525
vt 0.935515 0.675752
vt 0.928097 0.675765
vt 0.935341 0.635525
vt 0.938134 0.63552
vt 0.935515 0.675752
vt 0.938134 0.63552
vt 0.938348 0.675747
vt 0.935515 0.675752
vt 0.938134 0.63552
vt 0.935341 0.635525
vt 0.938348 0.675747
vt 0.935341 0.635525
vt 0.935515 0.675752
vt 0.938348 0.675747
vt 0.935341 0.635525
vt 0.92803 0.635538
vt 0.935515 0.675752
vt 0.92803 0.635538
vt 0.928097 0.675765
vt 0.935515 0.675752
vt 0.92803 0.635538
vt 0.918992 0.635554
vt 0.928097 0.675765
vt 0.918992 0.635554
vt 0.918927 0.675781
vt 0.928097 0.675765
vt 0.918992 0.635554
vt 0.911681 0.635568
vt 0.918927 0.675781
vt 0.911681 0.635568
vt 0.911509 0.675794
vt 0.918927 0.675781
vt 0.911681 0.635568
vt 0.908888 0.635573
vt 0.911509 0.675794
vt 0.908888 0.635573
vt 0.908676 0.675799
vt 0.911509 0.675794
vt 0.899543 0.683768
vt 0.904623 0.698974
vt 0.900521 0.683768
vt 0.904623 0.698974
vt 0.905414 0.697555
vt 0.900521 0.683768
vt 0.904623 0.698974
vt 0.917921 0.708371
vt 0.905414 0.697555
vt 0.917921 0.708371
vt 0.918224 0.706076
vt 0.905414 0.697555
vt 0.917921 0.708371
vt 0.934358 0.708371
vt 0.918224 0.706076
vt 0.934358 0.708371
vt 0.934058 0.706076
vt 0.918224 0.706076
vt 0.934358 0.708371
vt 0.947655 0.698974
vt 0.934058 0.706076
vt 0.947655 0.698974
vt 0.946867 0.697555
vt 0.934058 0.706076
vt 0.947655 0.698974
vt 0.952735 0.683768
vt 0.946867 0.697555
vt 0.952735 0.683768
vt 0.95176 0.683768
vt 0.946867 0.697555
vt 0.952735 0.683768
vt 0.947656 0.668563
vt 0.95176 0.683768
vt 0.947656 0.668563
vt 0.946867 0.669981
vt 0.95176 0.683768
vt 0.947656 0.668563
vt 0.934358 0.659165
vt 0.946867 0.669981
vt 0.934358 0.659165
vt 0.934058 0.66146
vt 0.946867 0.669981
vt 0.934358 0.659165
vt 0.917921 0.659165
vt 0.934058 0.66146
vt 0.917921 0.659165
vt 0.918224 0.66146
vt 0.934058 0.66146
vt 0.917921 0.659165
vt 0.904623 0.668563
vt 0.918224 0.66146
vt 0.904623 0.668563
vt 0.905414 0.669981
vt 0.918224 0.66146
vt 0.904623 0.668563
vt 0.899543 0.683768
vt 0.905414 0.669981
vt 0.899543 0.683768
vt 0.900521 0.683768
vt 0.905414 0.669981
vt 0.900521 0.683768
vt 0.905414 0.697555
vt 0.914194 0.683768
vt 0.905414 0.697555
vt 0.91641 0.69082
vt 0.914194 0.683768
vt 0.905414 0.697555
vt 0.918224 0.706076
vt 0.91641 0.69082
vt 0.918224 0.706076
vt 0.922213 0.695178
vt 0.91641 0.69082
vt 0.918224 0.706076
vt 0.934058 0.706076
vt 0.922213 0.695178
vt 0.934058 0.706076
vt 0.929386 0.695178
vt 0.922213 0.695178
vt 0.934058 0.706076
vt 0.946867 0.697555
vt 0.929386 0.695178
vt 0.946867 0.697555
vt 0.93519 0.69082
vt 0.929386 0.695178
vt 0.946867 0.697555
vt 0.95176 0.683768
vt 0.93519 0.69082
vt 0.95176 0.683768
vt 0.937406 0.683768
vt 0.93519 0.69082
vt 0.95176 0.683768
vt 0.946867 0.669981
vt 0.937406 0.683768
vt 0.946867 0.669981
vt 0.93519 0.676716
vt 0.937406 0.683768
vt 0.946867 0.669981
vt 0.934058 0.66146
vt 0.93519 0.676716
vt 0.934058 0.66146
vt 0.929386 0.672358
vt 0.93519 0.676716
vt 0.934058 0.66146
vt 0.918224 0.66146
vt 0.929386 0.672358
vt 0.918224 0.66146
vt 0.922213 0.672358
vt 0.929386 0.672358
vt 0.918224 0.66146
vt 0.905414 0.669981
vt 0.922213 0.672358
vt 0.905414 0.669981
vt 0.91641 0.676716
vt 0.922213 0.672358
vt 0.905414 0.669981
vt 0.900521 0.683768
vt 0.91641 0.676716
vt 0.900521 0.683768
vt 0.914194 0.683768
vt 0.91641 0.676716
vt 0.095465 0.638232
vt 0.100517 0.638226
vt 0.097366 0.71372
vt 0.100517 0.638226
vt 0.102011 0.713715
vt 0.097366 0.71372
vt 0.100517 0.638226
vt 0.113742 0.63821
vt 0.102011 0.713715
vt 0.113742 0.63821
vt 0.114171 0.713699
vt 0.102011 0.713715
vt 0.113742 0.63821
vt 0.13009 0.63819
vt 0.114171 0.713699
vt 0.13009 0.63819
vt 0.129202 0.713679
vt 0.114171 0.713699
vt 0.13009 0.63819
vt 0.143315 0.638175
vt 0.129202 0.713679
vt 0.143315 0.638175
vt 0.141362 0.713664
vt 0.129202 0.713679
vt 0.143315 0.638175
vt 0.148367 0.638169
vt 0.141362 0.713664
vt 0.148367 0.638169
vt 0.146007 0.713657
vt 0.141362 0.713664
vt 0.148367 0.638169
vt 0.143315 0.638175
vt 0.146007 0.713657
vt 0.143315 0.638175
vt 0.141362 0.713664
vt 0.146007 0.713657
vt 0.143315 0.638175
vt 0.13009 0.63819
vt 0.141362 0.713664
vt 0.13009 0.63819
vt 0.129202 0.713679
vt 0.141362 0.713664
vt 0.13009 0.63819
vt 0.113742 0.63821
vt 0.129202 0.713679
vt 0.113742 0.63821
vt 0.114171 0.713699
vt 0.129202 0.713679
vt 0.113742 0.63821
vt 0.100517 0.638226
vt 0.114171 0.713699
vt 0.100517 0.638226
vt 0.102011 0.713715
vt 0.114171 0.713699
vt 0.100517 0.638226
vt 0.095465 0.638232
vt 0.102011 0.713715
vt 0.095465 0.638232
vt 0.097366 0.71372
vt 0.102011 0.713715
vt 0.097366 0.71372
vt 0.102011 0.713715
vt 0.097987 0.713059
vt 0.102011 0.713715
vt 0.102513 0.713052
vt 0.097987 0.713059
vt 0.102011 0.713715
vt 0.114171 0.713699
vt 0.102513 0.713052
vt 0.114171 0.713699
vt 0.114363 0.713037
vt 0.102513 0.713052
vt 0.114171 0.713699
vt 0.129202 0.713679
vt 0.114363 0.713037
vt 0.129202 0.713679
vt 0.12901 0.713018
vt 0.114363 0.713037
vt 0.129202 0.713679
vt 0.141362 0.713664
vt 0.12901 0.713018
vt 0.141362 0.713664
vt 0.14086 0.713003
vt 0.12901 0.713018
vt 0.141362 0.713664
vt 0.146007 0.713657
vt 0.14086 0.713003
vt 0.146007 0.713657
vt 0.145386 0.712997
vt 0.14086 0.713003
vt 0.146007 0.713657
vt 0.141362 0.713664
vt 0.145386 0.712997
vt 0.141362 0.713664
vt 0.14086 0.713003
vt 0.145386 0.712997
vt 0.141362 0.713664
vt 0.129202 0.713679
vt 0.14086 0.713003
vt 0.129202 0.713679
vt 0.12901 0.713018
vt 0.14086 0.713003
vt 0.129202 0.713679
vt 0.114171 0.713699
vt 0.12901 0.713018
vt 0.114171 0.713699
vt 0.114363 0.713037
vt 0.12901 0.713018
vt 0.114171 0.713699
vt 0.102011 0.713715
vt 0.114363 0.713037
vt 0.102011 0.713715
vt 0.102513 0.713052
vt 0.114363 0.713037
vt 0.102011 0.713715
vt 0.097366 0.71372
vt 0.102513 0.713052
vt 0.097366 0.71372
vt 0.097987 0.713059
vt 0.102513 0.713052
vt 0.923126 0.63045
vt 0.911681 0.635568
vt 0.908888 0.635573
vt 0.923126 0.63045
vt 0.918992 0.635554
vt 0.911681 0.635568
vt 0.923126 0.63045
vt 0.92803 0.635538
vt 0.918992 0.635554
vt 0.923126 0.63045
vt 0.935341 0.635525
vt 0.92803 0.635538
vt 0.923126 0.63045
vt 0.938134 0.63552
vt 0.935341 0.635525
vt 0.923126 0.63045
vt 0.935341 0.635525
vt 0.938134 0.63552
vt 0.923126 0.63045
vt 0.92803 0.635538
vt 0.935341 0.635525
vt 0.923126 0.63045
vt 0.918992 0.635554
vt 0.92803 0.635538
vt 0.923126 0.63045
vt 0.911681 0.635568
vt 0.918992 0.635554
vt 0.923126 0.63045
vt 0.908888 0.635573
vt 0.911681 0.635568

# 330 Vertex Normals
vn -0.860985 -0.502812 -0.076716
vn -0.742978 -0.505123 0.439129
vn -0.999992 0.003761 -0.000994
vn -0.742978 -0.505123 0.439129
vn -0.813586 0.001235 0.581444
vn -0.999992 0.003761 -0.000994
vn -0.742978 -0.505123 0.439129
vn -0.343687 -0.512202 0.787101
vn -0.813586 0.001235 0.581444
vn -0.343687 -0.512202 0.787101
vn -0.312713 0.003075 0.949843
vn -0.813586 0.001235 0.581444
vn -0.343687 -0.512202 0.787101
vn 0.187015 -0.515152 0.836447
vn -0.312713 0.003075 0.949843
vn 0.187015 -0.515152 0.836447
vn 0.314249 0.006722 0.949317
vn -0.312713 0.003075 0.949843
vn 0.187015 -0.515152 0.836447
vn 0.647335 -0.511334 0.565239
vn 0.314249 0.006722 0.949317
vn 0.647335 -0.511334 0.565239
vn 0.813237 0.007126 0.58189
vn 0.314249 0.006722 0.949317
vn 0.647335 -0.511334 0.565239
vn 0.858183 -0.507482 0.077361
vn 0.813237 0.007126 0.58189
vn 0.858183 -0.507482 0.077361
vn 0.999993 0.003688 0.000993
vn 0.813237 0.007126 0.58189
vn 0.858183 -0.507482 0.077361
vn 0.740482 -0.509805 -0.437933
vn 0.999993 0.003688 0.000993
vn 0.740482 -0.509805 -0.437933
vn 0.813585 0.001174 -0.581445
vn 0.999993 0.003688 0.000993
vn 0.740482 -0.509805 -0.437933
vn 0.341775 -0.515103 -0.78604
vn 0.813585 0.001174 -0.581445
vn 0.341775 -0.515103 -0.78604
vn 0.312709 0.003048 -0.949844
vn 0.813585 0.001174 -0.581445
vn 0.341775 -0.515103 -0.78604
vn -0.188887 -0.515158 -0.836023
vn 0.312709 0.003048 -0.949844
vn -0.188887 -0.515158 -0.836023
vn -0.314245 0.006746 -0.949318
vn 0.312709 0.003048 -0.949844
vn -0.188887 -0.515158 -0.836023
vn -0.649755 -0.508451 -0.565063
vn -0.314245 0.006746 -0.949318
vn -0.649755 -0.508451 -0.565063
vn -0.813233 0.007188 -0.581894
vn -0.314245 0.006746 -0.949318
vn -0.649755 -0.508451 -0.565063
vn -0.860985 -0.502812 -0.076716
vn -0.813233 0.007188 -0.581894
vn -0.860985 -0.502812 -0.076716
vn -0.999992 0.003761 -0.000994
vn -0.813233 0.007188 -0.581894
vn -0.999992 0.003761 -0.000994
vn -0.813586 0.001235 0.581444
vn -0.98824 0.152838 0.004714
vn -0.813586 0.001235 0.581444
vn -0.798721 0.154676 0.581481
vn -0.98824 0.152838 0.004714
vn -0.813586 0.001235 0.581444
vn -0.312713 0.003075 0.949843
vn -0.798721 0.154676 0.581481
vn -0.312713 0.003075 0.949843
vn -0.307317 0.151505 0.939469
vn -0.798721 0.154676 0.581481
vn -0.312713 0.003075 0.949843
vn 0.314249 0.006722 0.949317
vn -0.307317 0.151505 0.939469
vn 0.314249 0.006722 0.949317
vn 0.306172 0.149239 0.940206
vn -0.307317 0.151505 0.939469
vn 0.314249 0.006722 0.949317
vn 0.813237 0.007126 0.58189
vn 0.306172 0.149239 0.940206
vn 0.813237 0.007126 0.58189
vn 0.802354 0.15334 0.576815
vn 0.306172 0.149239 0.940206
vn 0.813237 0.007126 0.58189
vn 0.999993 0.003688 0.000993
vn 0.802354 0.15334 0.576815
vn 0.999993 0.003688 0.000993
vn 0.987168 0.159611 -0.004898
vn 0.802354 0.15334 0.576815
vn 0.999993 0.003688 0.000993
vn 0.813585 0.001174 -0.581445
vn 0.987168 0.159611 -0.004898
vn 0.813585 0.001174 -0.581445
vn 0.797791 0.160599 -0.581151
vn 0.987168 0.159611 -0.004898
vn 0.813585 0.001174 -0.581445
vn 0.312709 0.003048 -0.949844
vn 0.797791 0.160599 -0.581151
vn 0.312709 0.003048 -0.949844
vn 0.30696 0.154408 -0.939113
vn 0.797791 0.160599 -0.581151
vn 0.312709 0.003048 -0.949844
vn -0.314245 0.006746 -0.949318
vn 0.30696 0.154408 -0.939113
vn -0.314245 0.006746 -0.949318
vn -0.306326 0.147856 -0.940374
vn 0.30696 0.154408 -0.939113
vn -0.314245 0.006746 -0.949318
vn -0.813233 0.007188 -0.581894
vn -0.306326 0.147856 -0.940374
vn -0.813233 0.007188 -0.581894
vn -0.802965 0.148206 -0.577306
vn -0.306326 0.147856 -0.940374
vn -0.813233 0.007188 -0.581894
vn -0.999992 0.003761 -0.000994
vn -0.802965 0.148206 -0.577306
vn -0.999992 0.003761 -0.000994
vn -0.98824 0.152838 0.004714
vn -0.802965 0.148206 -0.577306
vn -0.98824 0.152838 0.004714
vn -0.798721 0.154676 0.581481
vn -0.988063 0.154 -0.004001
vn -0.798721 0.154676 0.581481
vn -0.811976 0.150355 0.563993
vn -0.988063 0.154 -0.004001
vn -0.798721 0.154676 0.581481
vn -0.307317 0.151505 0.939469
vn -0.811976 0.150355 0.563993
vn -0.307317 0.151505 0.939469
vn -0.316438 0.158665 0.93525
vn -0.811976 0.150355 0.563993
vn -0.307317 0.151505 0.939469
vn 0.306172 0.149239 0.940206
vn -0.316438 0.158665 0.93525
vn 0.306172 0.149239 0.940206
vn 0.315391 0.16855 0.933873
vn -0.316438 0.158665 0.93525
vn 0.306172 0.149239 0.940206
vn 0.802354 0.15334 0.576815
vn 0.315391 0.16855 0.933873
vn 0.802354 0.15334 0.576815
vn 0.806811 0.167631 0.566529
vn 0.315391 0.16855 0.933873
vn 0.802354 0.15334 0.576815
vn 0.987168 0.159611 -0.004898
vn 0.806811 0.167631 0.566529
vn 0.987168 0.159611 -0.004898
vn 0.987419 0.158072 0.004212
vn 0.806811 0.167631 0.566529
vn 0.987168 0.159611 -0.004898
vn 0.797791 0.160599 -0.581151
vn 0.987419 0.158072 0.004212
vn 0.797791 0.160599 -0.581151
vn 0.811651 0.153126 -0.563716
vn 0.987419 0.158072 0.004212
vn 0.797791 0.160599 -0.581151
vn 0.30696 0.154408 -0.939113
vn 0.811651 0.153126 -0.563716
vn 0.30696 0.154408 -0.939113
vn 0.31631 0.159043 -0.935229
vn 0.811651 0.153126 -0.563716
vn 0.30696 0.154408 -0.939113
vn -0.306326 0.147856 -0.940374
vn 0.31631 0.159043 -0.935229
vn -0.306326 0.147856 -0.940374
vn -0.315736 0.166246 -0.93417
vn 0.31631 0.159043 -0.935229
vn -0.306326 0.147856 -0.940374
vn -0.802965 0.148206 -0.577306
vn -0.315736 0.166246 -0.93417
vn -0.802965 0.148206 -0.577306
vn -0.807523 0.163649 -0.566679
vn -0.315736 0.166246 -0.93417
vn -0.802965 0.148206 -0.577306
vn -0.98824 0.152838 0.004714
vn -0.807523 0.163649 -0.566679
vn -0.98824 0.152838 0.004714
vn -0.988063 0.154 -0.004001
vn -0.807523 0.163649 -0.566679
vn -0.988063 0.154 -0.004001
vn -0.811976 0.150355 0.563993
vn -0.988854 0.147457 -0.020578
vn -0.811976 0.150355 0.563993
vn -0.782115 0.155824 0.603336
vn -0.988854 0.147457 -0.020578
vn -0.811976 0.150355 0.563993
vn -0.316438 0.158665 0.93525
vn -0.782115 0.155824 0.603336
vn -0.316438 0.158665 0.93525
vn -0.269029 0.160571 0.949653
vn -0.782115 0.155824 0.603336
vn -0.316438 0.158665 0.93525
vn 0.315391 0.16855 0.933873
vn -0.269029 0.160571 0.949653
vn 0.315391 0.16855 0.933873
vn 0.308753 0.153733 0.938636
vn -0.269029 0.160571 0.949653
vn 0.315391 0.16855 0.933873
vn 0.806811 0.167631 0.566529
vn 0.308753 0.153733 0.938636
vn 0.806811 0.167631 0.566529
vn 0.783774 0.141561 0.604697
vn 0.308753 0.153733 0.938636
vn 0.806811 0.167631 0.566529
vn 0.987419 0.158072 0.004212
vn 0.783774 0.141561 0.604697
vn 0.987419 0.158072 0.004212
vn 0.989975 0.140173 0.017325
vn 0.783774 0.141561 0.604697
vn 0.987419 0.158072 0.004212
vn 0.811651 0.153126 -0.563716
vn 0.989975 0.140173 0.017325
vn 0.811651 0.153126 -0.563716
vn 0.785076 0.151005 -0.600711
vn 0.989975 0.140173 0.017325
vn 0.811651 0.153126 -0.563716
vn 0.31631 0.159043 -0.935229
vn 0.785076 0.151005 -0.600711
vn 0.31631 0.159043 -0.935229
vn 0.27677 0.160167 -0.947494
vn 0.785076 0.151005 -0.600711
vn 0.31631 0.159043 -0.935229
vn -0.315736 0.166246 -0.93417
vn 0.27677 0.160167 -0.947494
vn -0.315736 0.166246 -0.93417
vn -0.300406 0.157334 -0.940746
vn 0.27677 0.160167 -0.947494
vn -0.315736 0.166246 -0.93417
vn -0.807523 0.163649 -0.566679
vn -0.300406 0.157334 -0.940746
vn -0.807523 0.163649 -0.566679
vn -0.778677 0.148004 -0.609719
vn -0.300406 0.157334 -0.940746
vn -0.807523 0.163649 -0.566679
vn -0.988063 0.154 -0.004001
vn -0.778677 0.148004 -0.609719
vn -0.988063 0.154 -0.004001
vn -0.988854 0.147457 -0.020578
vn -0.778677 0.148004 -0.609719
vn -0.988854 0.147457 -0.020578
vn -0.782115 0.155824 0.603336
vn -0.954733 0.275307 0.112654
vn -0.782115 0.155824 0.603336
vn -0.646493 0.265035 0.715405
vn -0.954733 0.275307 0.112654
vn -0.782115 0.155824 0.603336
vn -0.269029 0.160571 0.949653
vn -0.646493 0.265035 0.715405
vn -0.269029 0.160571 0.949653
vn -0.140868 0.251447 0.957565
vn -0.646493 0.265035 0.715405
vn -0.269029 0.160571 0.949653
vn 0.308753 0.153733 0.938636
vn -0.140868 0.251447 0.957565
vn 0.308753 0.153733 0.938636
vn 0.361228 0.247235 0.899105
vn -0.140868 0.251447 0.957565
vn 0.308753 0.153733 0.938636
vn 0.783774 0.141561 0.604697
vn 0.361228 0.247235 0.899105
vn 0.783774 0.141561 0.604697
vn 0.801639 0.255008 0.54069
vn 0.361228 0.247235 0.899105
vn 0.783774 0.141561 0.604697
vn 0.989975 0.140173 0.017325
vn 0.801639 0.255008 0.54069
vn 0.989975 0.140173 0.017325
vn 0.957462 0.265975 -0.11191
vn 0.801639 0.255008 0.54069
vn 0.989975 0.140173 0.017325
vn 0.785076 0.151005 -0.600711
vn 0.957462 0.265975 -0.11191
vn 0.785076 0.151005 -0.600711
vn 0.664062 0.260557 -0.700808
vn 0.957462 0.265975 -0.11191
vn 0.785076 0.151005 -0.600711
vn 0.27677 0.160167 -0.947494
vn 0.664062 0.260557 -0.700808
vn 0.27677 0.160167 -0.947494
vn 0.17277 0.252185 -0.952131
vn 0.664062 0.260557 -0.700808
vn 0.27677 0.160167 -0.947494
vn -0.300406 0.157334 -0.940746
vn 0.17277 0.252185 -0.952131
vn -0.300406 0.157334 -0.940746
vn -0.331456 0.251673 -0.909284
vn 0.17277 0.252185 -0.952131
vn -0.300406 0.157334 -0.940746
vn -0.778677 0.148004 -0.609719
vn -0.331456 0.251673 -0.909284
vn -0.778677 0.148004 -0.609719
vn -0.787872 0.263098 -0.55681
vn -0.331456 0.251673 -0.909284
vn -0.778677 0.148004 -0.609719
vn -0.988854 0.147457 -0.020578
vn -0.787872 0.263098 -0.55681
vn -0.988854 0.147457 -0.020578
vn -0.954733 0.275307 0.112654
vn -0.787872 0.263098 -0.55681
vn -0.004612 -0.999989 0.001255
vn -0.742978 -0.505123 0.439129
vn -0.860985 -0.502812 -0.076716
vn -0.004612 -0.999989 0.001255
vn -0.343687 -0.512202 0.787101
vn -0.742978 -0.505123 0.439129
vn -0.004612 -0.999989 0.001255
vn 0.187015 -0.515152 0.836447
vn -0.343687 -0.512202 0.787101
vn -0.004612 -0.999989 0.001255
vn 0.647335 -0.511334 0.565239
vn 0.187015 -0.515152 0.836447
vn -0.004612 -0.999989 0.001255
vn 0.858183 -0.507482 0.077361
vn 0.647335 -0.511334 0.565239
vn -0.004612 -0.999989 0.001255
vn 0.740482 -0.509805 -0.437933
vn 0.858183 -0.507482 0.077361
vn -0.004612 -0.999989 0.001255
vn 0.341775 -0.515103 -0.78604
vn 0.740482 -0.509805 -0.437933
vn -0.004612 -0.999989 0.001255
vn -0.188887 -0.515158 -0.836023
vn 0.341775 -0.515103 -0.78604
vn -0.004612 -0.999989 0.001255
vn -0.649755 -0.508451 -0.565063
vn -0.188887 -0.515158 -0.836023
vn -0.004612 -0.999989 0.001255
vn -0.860985 -0.502812 -0.076716
vn -0.649755 -0.508451 -0.565063

# qqw, 110 grouped triangles

usemtl bullet
o qqw
g qqw

f 1/1/1 2/2/2 11/3/3
f 2/4/4 12/5/5 11/6/6
f 2/7/7 3/8/8 12/9/9
f 3/10/10 13/11/11 12/12/12
f 3/13/13 4/14/14 13/15/15
f 4/16/16 14/17/17 13/18/18
f 4/19/19 5/20/20 14/21/21
f 5/22/22 15/23/23 14/24/24
f 5/25/25 6/26/26 15/27/27
f 6/28/28 16/29/29 15/30/30
f 6/31/31 7/32/32 16/33/33
f 7/34/34 17/35/35 16/36/36
f 7/37/37 8/38/38 17/39/39
f 8/40/40 18/41/41 17/42/42
f 8/43/43 9/44/44 18/45/45
f 9/46/46 19/47/47 18/48/48
f 9/49/49 10/50/50 19/51/51
f 10/52/52 20/53/53 19/54/54
f 10/55/55 1/56/56 20/57/57
f 1/58/58 11/59/59 20/60/60
f 11/61/61 12/62/62 21/63/63
f 12/64/64 22/65/65 21/66/66
f 12/67/67 13/68/68 22/69/69
f 13/70/70 23/71/71 22/72/72
f 13/73/73 14/74/74 23/75/75
f 14/76/76 24/77/77 23/78/78
f 14/79/79 15/80/80 24/81/81
f 15/82/82 25/83/83 24/84/84
f 15/85/85 16/86/86 25/87/87
f 16/88/88 26/89/89 25/90/90
f 16/91/91 17/92/92 26/93/93
f 17/94/94 27/95/95 26/96/96
f 17/97/97 18/98/98 27/99/99
f 18/100/100 28/101/101 27/102/102
f 18/103/103 19/104/104 28/105/105
f 19/106/106 29/107/107 28/108/108
f 19/109/109 20/110/110 29/111/111
f 20/112/112 30/113/113 29/114/114
f 20/115/115 11/116/116 30/117/117
f 11/118/118 21/119/119 30/120/120
f 21/121/121 22/122/122 31/123/123
f 22/124/124 32/125/125 31/126/126
f 22/127/127 23/128/128 32/129/129
f 23/130/130 33/131/131 32/132/132
f 23/133/133 24/134/134 33/135/135
f 24/136/136 34/137/137 33/138/138
f 24/139/139 25/140/140 34/141/141
f 25/142/142 35/143/143 34/144/144
f 25/145/145 26/146/146 35/147/147
f 26/148/148 36/149/149 35/150/150
f 26/151/151 27/152/152 36/153/153
f 27/154/154 37/155/155 36/156/156
f 27/157/157 28/158/158 37/159/159
f 28/160/160 38/161/161 37/162/162
f 28/163/163 29/164/164 38/165/165
f 29/166/166 39/167/167 38/168/168
f 29/169/169 30/170/170 39/171/171
f 30/172/172 40/173/173 39/174/174
f 30/175/175 21/176/176 40/177/177
f 21/178/178 31/179/179 40/180/180
f 31/181/181 32/182/182 41/183/183
f 32/184/184 42/185/185 41/186/186
f 32/187/187 33/188/188 42/189/189
f 33/190/190 43/191/191 42/192/192
f 33/193/193 34/194/194 43/195/195
f 34/196/196 44/197/197 43/198/198
f 34/199/199 35/200/200 44/201/201
f 35/202/202 45/203/203 44/204/204
f 35/205/205 36/206/206 45/207/207
f 36/208/208 46/209/209 45/210/210
f 36/211/211 37/212/212 46/213/213
f 37/214/214 47/215/215 46/216/216
f 37/217/217 38/218/218 47/219/219
f 38/220/220 48/221/221 47/222/222
f 38/223/223 39/224/224 48/225/225
f 39/226/226 49/227/227 48/228/228
f 39/229/229 40/230/230 49/231/231
f 40/232/232 50/233/233 49/234/234
f 40/235/235 31/236/236 50/237/237
f 31/238/238 41/239/239 50/240/240
f 41/241/241 42/242/242 51/243/243
f 42/244/244 52/245/245 51/246/246
f 42/247/247 43/248/248 52/249/249
f 43/250/250 53/251/251 52/252/252
f 43/253/253 44/254/254 53/255/255
f 44/256/256 54/257/257 53/258/258
f 44/259/259 45/260/260 54/261/261
f 45/262/262 55/263/263 54/264/264
f 45/265/265 46/266/266 55/267/267
f 46/268/268 56/269/269 55/270/270
f 46/271/271 47/272/272 56/273/273
f 47/274/274 57/275/275 56/276/276
f 47/277/277 48/278/278 57/279/279
f 48/280/280 58/281/281 57/282/282
f 48/283/283 49/284/284 58/285/285
f 49/286/286 59/287/287 58/288/288
f 49/289/289 50/290/290 59/291/291
f 50/292/292 60/293/293 59/294/294
f 50/295/295 41/296/296 60/297/297
f 41/298/298 51/299/299 60/300/300
f 61/301/301 2/302/302 1/303/303
f 61/304/304 3/305/305 2/306/306
f 61/307/307 4/308/308 3/309/309
f 61/310/310 5/311/311 4/312/312
f 61/313/313 6/314/314 5/315/315
f 61/316/316 7/317/317 6/318/318
f 61/319/319 8/320/320 7/321/321
f 61/322/322 9/323/323 8/324/324
f 61/325/325 10/326/326 9/327/327
f 61/328/328 1/329/329 10/330/330
