# Wavefront OBJ file
# Exported by Misfit Model 3D 1.3.8
# Mon Sep 05 00:22:09 2016

mtllib elipsoid.mtl

# 64 Vertices
v -35.334779 35.456331 -0.000001
v -32.747449 35.456331 -5.171901
v -26.501083 35.456331 -7.314172
v -20.254718 35.456331 -5.171901
v -17.667389 35.456331 -0.000001
v -20.254719 35.456331 5.171899
v -26.501085 35.456331 7.31417
v -32.74745 35.456331 5.171899
v -24.985462 10.604193 -0.000001
v -23.155943 12.423948 -5.171901
v -18.739096 16.817227 -7.314172
v -14.322249 21.210506 -5.171901
v -12.492731 23.030262 -0.000001
v -14.32225 21.210507 5.171899
v -18.739097 16.817228 7.31417
v -23.155944 12.423949 5.171899
v -0.000001 0.3101 -0.0
v -0.0 2.883623 -5.1719
v 0.0 9.096657 -7.314171
v 0.0 15.309692 -5.1719
v -0.0 17.883215 -0.000001
v -0.000001 15.309693 5.171899
v -0.000002 9.096658 7.314171
v -0.000002 2.883624 5.1719
v 24.985461 10.604191 0.000001
v 23.155944 12.423947 -5.171899
v 18.739097 16.817226 -7.31417
v 14.322249 21.210505 -5.1719
v 12.49273 23.030261 -0.0
v 14.322247 21.210506 5.1719
v 18.739094 16.817227 7.314171
v 23.155942 12.423948 5.171901
v 35.334779 35.456329 0.000001
v 32.74745 35.456329 -5.171899
v 26.501085 35.456329 -7.31417
v 20.25472 35.45633 -5.171899
v 17.667389 35.45633 0.0
v 20.254717 35.45633 5.1719
v 26.501082 35.45633 7.314172
v 32.747448 35.456329 5.171901
v 24.985463 60.308468 0.000001
v 23.155946 58.488712 -5.171899
v 18.739099 54.095433 -7.31417
v 14.322251 49.702155 -5.171899
v 12.492732 47.882399 0.0
v 14.322249 49.702155 5.1719
v 18.739096 54.095433 7.314172
v 23.155944 58.488712 5.171901
v 0.000003 70.602562 0.0
v 0.000003 68.029039 -5.1719
v 0.000003 61.816004 -7.314171
v 0.000002 55.60297 -5.1719
v 0.000001 53.029446 -0.0
v 0.000001 55.602969 5.171899
v 0.000001 61.816004 7.314171
v 0.000002 68.029038 5.1719
v -24.985459 60.308472 -0.000001
v -23.155941 58.488716 -5.171901
v -18.739094 54.095436 -7.314172
v -14.322247 49.702157 -5.171901
v -12.49273 47.882401 -0.000001
v -14.322248 49.702157 5.171899
v -18.739095 54.095436 7.31417
v -23.155942 58.488715 5.171899

# 384 Texture Coordinates
vt 0.0 1.0
vt 0.0 0.0
vt 1.0 0.0
vt 0.0 1.0
vt 0.0 0.0
vt 1.0 0.0
vt 0.0 1.0
vt 0.0 0.0
vt 1.0 0.0
vt 0.0 1.0
vt 0.0 0.0
vt 1.0 0.0
vt 0.0 1.0
vt 0.0 0.0
vt 1.0 0.0
vt 0.0 1.0
vt 0.0 0.0
vt 1.0 0.0
vt 0.0 1.0
vt 0.0 0.0
vt 1.0 0.0
vt 0.0 1.0
vt 0.0 0.0
vt 1.0 0.0
vt 0.0 1.0
vt 0.0 0.0
vt 1.0 0.0
vt 0.0 1.0
vt 0.0 0.0
vt 1.0 0.0
vt 0.0 1.0
vt 0.0 0.0
vt 1.0 0.0
vt 0.0 1.0
vt 0.0 0.0
vt 1.0 0.0
vt 0.0 1.0
vt 0.0 0.0
vt 1.0 0.0
vt 0.0 1.0
vt 0.0 0.0
vt 1.0 0.0
vt 0.0 1.0
vt 0.0 0.0
vt 1.0 0.0
vt 0.0 1.0
vt 0.0 0.0
vt 1.0 0.0
vt 0.0 1.0
vt 0.0 0.0
vt 1.0 0.0
vt 0.0 1.0
vt 0.0 0.0
vt 1.0 0.0
vt 0.0 1.0
vt 0.0 0.0
vt 1.0 0.0
vt 0.0 1.0
vt 0.0 0.0
vt 1.0 0.0
vt 0.0 1.0
vt 0.0 0.0
vt 1.0 0.0
vt 0.0 1.0
vt 0.0 0.0
vt 1.0 0.0
vt 0.0 1.0
vt 0.0 0.0
vt 1.0 0.0
vt 0.0 1.0
vt 0.0 0.0
vt 1.0 0.0
vt 0.0 1.0
vt 0.0 0.0
vt 1.0 0.0
vt 0.0 1.0
vt 0.0 0.0
vt 1.0 0.0
vt 0.0 1.0
vt 0.0 0.0
vt 1.0 0.0
vt 0.0 1.0
vt 0.0 0.0
vt 1.0 0.0
vt 0.0 1.0
vt 0.0 0.0
vt 1.0 0.0
vt 0.0 1.0
vt 0.0 0.0
vt 1.0 0.0
vt 0.0 1.0
vt 0.0 0.0
vt 1.0 0.0
vt 0.0 1.0
vt 0.0 0.0
vt 1.0 0.0
vt 0.0 1.0
vt 0.0 0.0
vt 1.0 0.0
vt 0.0 1.0
vt 0.0 0.0
vt 1.0 0.0
vt 0.0 1.0
vt 0.0 0.0
vt 1.0 0.0
vt 0.0 1.0
vt 0.0 0.0
vt 1.0 0.0
vt 0.0 1.0
vt 0.0 0.0
vt 1.0 0.0
vt 0.0 1.0
vt 0.0 0.0
vt 1.0 0.0
vt 0.0 1.0
vt 0.0 0.0
vt 1.0 0.0
vt 0.0 1.0
vt 0.0 0.0
vt 1.0 0.0
vt 0.0 1.0
vt 0.0 0.0
vt 1.0 0.0
vt 0.0 1.0
vt 0.0 0.0
vt 1.0 0.0
vt 0.0 1.0
vt 0.0 0.0
vt 1.0 0.0
vt 0.0 1.0
vt 0.0 0.0
vt 1.0 0.0
vt 0.0 1.0
vt 0.0 0.0
vt 1.0 0.0
vt 0.0 1.0
vt 0.0 0.0
vt 1.0 0.0
vt 0.0 1.0
vt 0.0 0.0
vt 1.0 0.0
vt 0.0 1.0
vt 0.0 0.0
vt 1.0 0.0
vt 0.0 1.0
vt 0.0 0.0
vt 1.0 0.0
vt 0.0 1.0
vt 0.0 0.0
vt 1.0 0.0
vt 0.0 1.0
vt 0.0 0.0
vt 1.0 0.0
vt 0.0 1.0
vt 0.0 0.0
vt 1.0 0.0
vt 0.0 1.0
vt 0.0 0.0
vt 1.0 0.0
vt 0.0 1.0
vt 0.0 0.0
vt 1.0 0.0
vt 0.0 1.0
vt 0.0 0.0
vt 1.0 0.0
vt 0.0 1.0
vt 0.0 0.0
vt 1.0 0.0
vt 0.0 1.0
vt 0.0 0.0
vt 1.0 0.0
vt 0.0 1.0
vt 0.0 0.0
vt 1.0 0.0
vt 0.0 1.0
vt 0.0 0.0
vt 1.0 0.0
vt 0.0 1.0
vt 0.0 0.0
vt 1.0 0.0
vt 0.0 1.0
vt 0.0 0.0
vt 1.0 0.0
vt 0.0 1.0
vt 0.0 0.0
vt 1.0 0.0
vt 0.0 1.0
vt 0.0 0.0
vt 1.0 0.0
vt 0.0 1.0
vt 0.0 0.0
vt 1.0 0.0
vt 0.0 1.0
vt 0.0 0.0
vt 1.0 0.0
vt 0.0 1.0
vt 0.0 0.0
vt 1.0 0.0
vt 0.0 1.0
vt 0.0 0.0
vt 1.0 0.0
vt 0.0 1.0
vt 0.0 0.0
vt 1.0 0.0
vt 0.0 1.0
vt 0.0 0.0
vt 1.0 0.0
vt 0.0 1.0
vt 0.0 0.0
vt 1.0 0.0
vt 0.0 1.0
vt 0.0 0.0
vt 1.0 0.0
vt 0.0 1.0
vt 0.0 0.0
vt 1.0 0.0
vt 0.0 1.0
vt 0.0 0.0
vt 1.0 0.0
vt 0.0 1.0
vt 0.0 0.0
vt 1.0 0.0
vt 0.0 1.0
vt 0.0 0.0
vt 1.0 0.0
vt 0.0 1.0
vt 0.0 0.0
vt 1.0 0.0
vt 0.0 1.0
vt 0.0 0.0
vt 1.0 0.0
vt 0.0 1.0
vt 0.0 0.0
vt 1.0 0.0
vt 0.0 1.0
vt 0.0 0.0
vt 1.0 0.0
vt 0.0 1.0
vt 0.0 0.0
vt 1.0 0.0
vt 0.0 1.0
vt 0.0 0.0
vt 1.0 0.0
vt 0.0 1.0
vt 0.0 0.0
vt 1.0 0.0
vt 0.0 1.0
vt 0.0 0.0
vt 1.0 0.0
vt 0.0 1.0
vt 0.0 0.0
vt 1.0 0.0
vt 0.0 1.0
vt 0.0 0.0
vt 1.0 0.0
vt 0.0 1.0
vt 0.0 0.0
vt 1.0 0.0
vt 0.0 1.0
vt 0.0 0.0
vt 1.0 0.0
vt 0.0 1.0
vt 0.0 0.0
vt 1.0 0.0
vt 0.0 1.0
vt 0.0 0.0
vt 1.0 0.0
vt 0.0 1.0
vt 0.0 0.0
vt 1.0 0.0
vt 0.0 1.0
vt 0.0 0.0
vt 1.0 0.0
vt 0.0 1.0
vt 0.0 0.0
vt 1.0 0.0
vt 0.0 1.0
vt 0.0 0.0
vt 1.0 0.0
vt 0.0 1.0
vt 0.0 0.0
vt 1.0 0.0
vt 0.0 1.0
vt 0.0 0.0
vt 1.0 0.0
vt 0.0 1.0
vt 0.0 0.0
vt 1.0 0.0
vt 0.0 1.0
vt 0.0 0.0
vt 1.0 0.0
vt 0.0 1.0
vt 0.0 0.0
vt 1.0 0.0
vt 0.0 1.0
vt 0.0 0.0
vt 1.0 0.0
vt 0.0 1.0
vt 0.0 0.0
vt 1.0 0.0
vt 0.0 1.0
vt 0.0 0.0
vt 1.0 0.0
vt 0.0 1.0
vt 0.0 0.0
vt 1.0 0.0
vt 0.0 1.0
vt 0.0 0.0
vt 1.0 0.0
vt 0.0 1.0
vt 0.0 0.0
vt 1.0 0.0
vt 0.0 1.0
vt 0.0 0.0
vt 1.0 0.0
vt 0.0 1.0
vt 0.0 0.0
vt 1.0 0.0
vt 0.0 1.0
vt 0.0 0.0
vt 1.0 0.0
vt 0.0 1.0
vt 0.0 0.0
vt 1.0 0.0
vt 0.0 1.0
vt 0.0 0.0
vt 1.0 0.0
vt 0.0 1.0
vt 0.0 0.0
vt 1.0 0.0
vt 0.0 1.0
vt 0.0 0.0
vt 1.0 0.0
vt 0.0 1.0
vt 0.0 0.0
vt 1.0 0.0
vt 0.0 1.0
vt 0.0 0.0
vt 1.0 0.0
vt 0.0 1.0
vt 0.0 0.0
vt 1.0 0.0
vt 0.0 1.0
vt 0.0 0.0
vt 1.0 0.0
vt 0.0 1.0
vt 0.0 0.0
vt 1.0 0.0
vt 0.0 1.0
vt 0.0 0.0
vt 1.0 0.0
vt 0.0 1.0
vt 0.0 0.0
vt 1.0 0.0
vt 0.0 1.0
vt 0.0 0.0
vt 1.0 0.0
vt 0.0 1.0
vt 0.0 0.0
vt 1.0 0.0
vt 0.0 1.0
vt 0.0 0.0
vt 1.0 0.0
vt 0.0 1.0
vt 0.0 0.0
vt 1.0 0.0
vt 0.0 1.0
vt 0.0 0.0
vt 1.0 0.0
vt 0.0 1.0
vt 0.0 0.0
vt 1.0 0.0
vt 0.0 1.0
vt 0.0 0.0
vt 1.0 0.0
vt 0.0 1.0
vt 0.0 0.0
vt 1.0 0.0
vt 0.0 1.0
vt 0.0 0.0
vt 1.0 0.0
vt 0.0 1.0
vt 0.0 0.0
vt 1.0 0.0

# 384 Vertex Normals
vn -1.0 -0.0 -0.0
vn -0.64921 -0.040148 -0.759549
vn -0.705671 -0.70854 -0.00026
vn -0.64921 -0.040148 -0.759549
vn -0.430337 -0.488824 -0.758855
vn -0.705671 -0.70854 -0.00026
vn -0.64921 -0.040148 -0.759549
vn 0.0 -0.047553 -0.998869
vn -0.430337 -0.488824 -0.758855
vn 0.0 -0.047553 -0.998869
vn 0.033465 -0.033607 -0.998875
vn -0.430337 -0.488824 -0.758855
vn 0.0 -0.047553 -0.998869
vn 0.64921 -0.040148 -0.759549
vn 0.033465 -0.033607 -0.998875
vn 0.64921 -0.040148 -0.759549
vn 0.486909 0.432443 -0.758889
vn 0.033465 -0.033607 -0.998875
vn 0.64921 -0.040148 -0.759549
vn 1.0 0.0 0.0
vn 0.486909 0.432443 -0.758889
vn 1.0 0.0 0.0
vn 0.705671 0.70854 0.00026
vn 0.486909 0.432443 -0.758889
vn 1.0 0.0 0.0
vn 0.64921 0.040148 0.759549
vn 0.705671 0.70854 0.00026
vn 0.64921 0.040148 0.759549
vn 0.430337 0.488824 0.758855
vn 0.705671 0.70854 0.00026
vn 0.64921 0.040148 0.759549
vn -0.0 0.047553 0.998869
vn 0.430337 0.488824 0.758855
vn -0.0 0.047553 0.998869
vn -0.033465 0.033607 0.998875
vn 0.430337 0.488824 0.758855
vn -0.0 0.047553 0.998869
vn -0.64921 0.040148 0.759549
vn -0.033465 0.033607 0.998875
vn -0.64921 0.040148 0.759549
vn -0.486909 -0.432443 0.758889
vn -0.033465 0.033607 0.998875
vn -0.64921 0.040148 0.759549
vn -1.0 -0.0 -0.0
vn -0.486909 -0.432443 0.758889
vn -1.0 -0.0 -0.0
vn -0.705671 -0.70854 -0.00026
vn -0.486909 -0.432443 0.758889
vn -0.705671 -0.70854 -0.00026
vn -0.430337 -0.488824 -0.758855
vn -0.0 -1.0 0.0
vn -0.430337 -0.488824 -0.758855
vn 0.039724 -0.650814 -0.758197
vn -0.0 -1.0 0.0
vn -0.430337 -0.488824 -0.758855
vn 0.033465 -0.033607 -0.998875
vn 0.039724 -0.650814 -0.758197
vn 0.033465 -0.033607 -0.998875
vn 0.0473 -0.0 -0.998881
vn 0.039724 -0.650814 -0.758197
vn 0.033465 -0.033607 -0.998875
vn 0.486909 0.432443 -0.758889
vn 0.0473 -0.0 -0.998881
vn 0.486909 0.432443 -0.758889
vn 0.039724 0.650814 -0.758197
vn 0.0473 -0.0 -0.998881
vn 0.486909 0.432443 -0.758889
vn 0.705671 0.70854 0.00026
vn 0.039724 0.650814 -0.758197
vn 0.705671 0.70854 0.00026
vn 0.0 1.0 -0.0
vn 0.039724 0.650814 -0.758197
vn 0.705671 0.70854 0.00026
vn 0.430337 0.488824 0.758855
vn 0.0 1.0 -0.0
vn 0.430337 0.488824 0.758855
vn -0.039724 0.650814 0.758197
vn 0.0 1.0 -0.0
vn 0.430337 0.488824 0.758855
vn -0.033465 0.033607 0.998875
vn -0.039724 0.650814 0.758197
vn -0.033465 0.033607 0.998875
vn -0.0473 0.0 0.998881
vn -0.039724 0.650814 0.758197
vn -0.033465 0.033607 0.998875
vn -0.486909 -0.432443 0.758889
vn -0.0473 0.0 0.998881
vn -0.486909 -0.432443 0.758889
vn -0.039724 -0.650814 0.758197
vn -0.0473 0.0 0.998881
vn -0.486909 -0.432443 0.758889
vn -0.705671 -0.70854 -0.00026
vn -0.039724 -0.650814 0.758197
vn -0.705671 -0.70854 -0.00026
vn -0.0 -1.0 0.0
vn -0.039724 -0.650814 0.758197
vn -0.0 -1.0 0.0
vn 0.039724 -0.650814 -0.758197
vn 0.705671 -0.70854 0.00026
vn 0.039724 -0.650814 -0.758197
vn 0.48691 -0.432443 -0.758888
vn 0.705671 -0.70854 0.00026
vn 0.039724 -0.650814 -0.758197
vn 0.0473 -0.0 -0.998881
vn 0.48691 -0.432443 -0.758888
vn 0.0473 -0.0 -0.998881
vn 0.033465 0.033607 -0.998875
vn 0.48691 -0.432443 -0.758888
vn 0.0473 -0.0 -0.998881
vn 0.039724 0.650814 -0.758197
vn 0.033465 0.033607 -0.998875
vn 0.039724 0.650814 -0.758197
vn -0.430337 0.488824 -0.758855
vn 0.033465 0.033607 -0.998875
vn 0.039724 0.650814 -0.758197
vn 0.0 1.0 -0.0
vn -0.430337 0.488824 -0.758855
vn 0.0 1.0 -0.0
vn -0.705671 0.70854 -0.00026
vn -0.430337 0.488824 -0.758855
vn 0.0 1.0 -0.0
vn -0.039724 0.650814 0.758197
vn -0.705671 0.70854 -0.00026
vn -0.039724 0.650814 0.758197
vn -0.486909 0.432443 0.758888
vn -0.705671 0.70854 -0.00026
vn -0.039724 0.650814 0.758197
vn -0.0473 0.0 0.998881
vn -0.486909 0.432443 0.758888
vn -0.0473 0.0 0.998881
vn -0.033465 -0.033607 0.998875
vn -0.486909 0.432443 0.758888
vn -0.0473 0.0 0.998881
vn -0.039724 -0.650814 0.758197
vn -0.033465 -0.033607 0.998875
vn -0.039724 -0.650814 0.758197
vn 0.430337 -0.488824 0.758855
vn -0.033465 -0.033607 0.998875
vn -0.039724 -0.650814 0.758197
vn -0.0 -1.0 0.0
vn 0.430337 -0.488824 0.758855
vn -0.0 -1.0 0.0
vn 0.705671 -0.70854 0.00026
vn 0.430337 -0.488824 0.758855
vn 0.705671 -0.70854 0.00026
vn 0.48691 -0.432443 -0.758888
vn 1.0 -0.0 0.0
vn 0.48691 -0.432443 -0.758888
vn 0.64921 0.040148 -0.759549
vn 1.0 -0.0 0.0
vn 0.48691 -0.432443 -0.758888
vn 0.033465 0.033607 -0.998875
vn 0.64921 0.040148 -0.759549
vn 0.033465 0.033607 -0.998875
vn 0.0 0.047553 -0.998869
vn 0.64921 0.040148 -0.759549
vn 0.033465 0.033607 -0.998875
vn -0.430337 0.488824 -0.758855
vn 0.0 0.047553 -0.998869
vn -0.430337 0.488824 -0.758855
vn -0.64921 0.040148 -0.759549
vn 0.0 0.047553 -0.998869
vn -0.430337 0.488824 -0.758855
vn -0.705671 0.70854 -0.00026
vn -0.64921 0.040148 -0.759549
vn -0.705671 0.70854 -0.00026
vn -1.0 0.0 -0.0
vn -0.64921 0.040148 -0.759549
vn -0.705671 0.70854 -0.00026
vn -0.486909 0.432443 0.758888
vn -1.0 0.0 -0.0
vn -0.486909 0.432443 0.758888
vn -0.64921 -0.040148 0.759549
vn -1.0 0.0 -0.0
vn -0.486909 0.432443 0.758888
vn -0.033465 -0.033607 0.998875
vn -0.64921 -0.040148 0.759549
vn -0.033465 -0.033607 0.998875
vn -0.0 -0.047553 0.998869
vn -0.64921 -0.040148 0.759549
vn -0.033465 -0.033607 0.998875
vn 0.430337 -0.488824 0.758855
vn -0.0 -0.047553 0.998869
vn 0.430337 -0.488824 0.758855
vn 0.64921 -0.040148 0.759549
vn -0.0 -0.047553 0.998869
vn 0.430337 -0.488824 0.758855
vn 0.705671 -0.70854 0.00026
vn 0.64921 -0.040148 0.759549
vn 0.705671 -0.70854 0.00026
vn 1.0 -0.0 0.0
vn 0.64921 -0.040148 0.759549
vn 1.0 -0.0 0.0
vn 0.64921 0.040148 -0.759549
vn 0.705671 0.70854 -0.000259
vn 0.64921 0.040148 -0.759549
vn 0.430337 0.488824 -0.758855
vn 0.705671 0.70854 -0.000259
vn 0.64921 0.040148 -0.759549
vn 0.0 0.047553 -0.998869
vn 0.430337 0.488824 -0.758855
vn 0.0 0.047553 -0.998869
vn -0.033465 0.033607 -0.998875
vn 0.430337 0.488824 -0.758855
vn 0.0 0.047553 -0.998869
vn -0.64921 0.040148 -0.759549
vn -0.033465 0.033607 -0.998875
vn -0.64921 0.040148 -0.759549
vn -0.486909 -0.432443 -0.758889
vn -0.033465 0.033607 -0.998875
vn -0.64921 0.040148 -0.759549
vn -1.0 0.0 -0.0
vn -0.486909 -0.432443 -0.758889
vn -1.0 0.0 -0.0
vn -0.705671 -0.70854 0.000259
vn -0.486909 -0.432443 -0.758889
vn -1.0 0.0 -0.0
vn -0.64921 -0.040148 0.759549
vn -0.705671 -0.70854 0.000259
vn -0.64921 -0.040148 0.759549
vn -0.430337 -0.488824 0.758855
vn -0.705671 -0.70854 0.000259
vn -0.64921 -0.040148 0.759549
vn -0.0 -0.047553 0.998869
vn -0.430337 -0.488824 0.758855
vn -0.0 -0.047553 0.998869
vn 0.033465 -0.033607 0.998875
vn -0.430337 -0.488824 0.758855
vn -0.0 -0.047553 0.998869
vn 0.64921 -0.040148 0.759549
vn 0.033465 -0.033607 0.998875
vn 0.64921 -0.040148 0.759549
vn 0.486909 0.432443 0.758889
vn 0.033465 -0.033607 0.998875
vn 0.64921 -0.040148 0.759549
vn 1.0 -0.0 0.0
vn 0.486909 0.432443 0.758889
vn 1.0 -0.0 0.0
vn 0.705671 0.70854 -0.000259
vn 0.486909 0.432443 0.758889
vn 0.705671 0.70854 -0.000259
vn 0.430337 0.488824 -0.758855
vn 0.0 1.0 0.0
vn 0.430337 0.488824 -0.758855
vn -0.039723 0.650814 -0.758197
vn 0.0 1.0 0.0
vn 0.430337 0.488824 -0.758855
vn -0.033465 0.033607 -0.998875
vn -0.039723 0.650814 -0.758197
vn -0.033465 0.033607 -0.998875
vn -0.0473 0.0 -0.998881
vn -0.039723 0.650814 -0.758197
vn -0.033465 0.033607 -0.998875
vn -0.486909 -0.432443 -0.758889
vn -0.0473 0.0 -0.998881
vn -0.486909 -0.432443 -0.758889
vn -0.039724 -0.650814 -0.758197
vn -0.0473 0.0 -0.998881
vn -0.486909 -0.432443 -0.758889
vn -0.705671 -0.70854 0.000259
vn -0.039724 -0.650814 -0.758197
vn -0.705671 -0.70854 0.000259
vn -0.0 -1.0 -0.0
vn -0.039724 -0.650814 -0.758197
vn -0.705671 -0.70854 0.000259
vn -0.430337 -0.488824 0.758855
vn -0.0 -1.0 -0.0
vn -0.430337 -0.488824 0.758855
vn 0.039723 -0.650814 0.758197
vn -0.0 -1.0 -0.0
vn -0.430337 -0.488824 0.758855
vn 0.033465 -0.033607 0.998875
vn 0.039723 -0.650814 0.758197
vn 0.033465 -0.033607 0.998875
vn 0.0473 -0.0 0.998881
vn 0.039723 -0.650814 0.758197
vn 0.033465 -0.033607 0.998875
vn 0.486909 0.432443 0.758889
vn 0.0473 -0.0 0.998881
vn 0.486909 0.432443 0.758889
vn 0.039724 0.650814 0.758197
vn 0.0473 -0.0 0.998881
vn 0.486909 0.432443 0.758889
vn 0.705671 0.70854 -0.000259
vn 0.039724 0.650814 0.758197
vn 0.705671 0.70854 -0.000259
vn 0.0 1.0 0.0
vn 0.039724 0.650814 0.758197
vn 0.0 1.0 0.0
vn -0.039723 0.650814 -0.758197
vn -0.705671 0.70854 0.000259
vn -0.039723 0.650814 -0.758197
vn -0.486909 0.432443 -0.758889
vn -0.705671 0.70854 0.000259
vn -0.039723 0.650814 -0.758197
vn -0.0473 0.0 -0.998881
vn -0.486909 0.432443 -0.758889
vn -0.0473 0.0 -0.998881
vn -0.033465 -0.033607 -0.998875
vn -0.486909 0.432443 -0.758889
vn -0.0473 0.0 -0.998881
vn -0.039724 -0.650814 -0.758197
vn -0.033465 -0.033607 -0.998875
vn -0.039724 -0.650814 -0.758197
vn 0.430337 -0.488824 -0.758855
vn -0.033465 -0.033607 -0.998875
vn -0.039724 -0.650814 -0.758197
vn -0.0 -1.0 -0.0
vn 0.430337 -0.488824 -0.758855
vn -0.0 -1.0 -0.0
vn 0.705671 -0.70854 -0.000259
vn 0.430337 -0.488824 -0.758855
vn -0.0 -1.0 -0.0
vn 0.039723 -0.650814 0.758197
vn 0.705671 -0.70854 -0.000259
vn 0.039723 -0.650814 0.758197
vn 0.486909 -0.432443 0.758889
vn 0.705671 -0.70854 -0.000259
vn 0.039723 -0.650814 0.758197
vn 0.0473 -0.0 0.998881
vn 0.486909 -0.432443 0.758889
vn 0.0473 -0.0 0.998881
vn 0.033465 0.033607 0.998875
vn 0.486909 -0.432443 0.758889
vn 0.0473 -0.0 0.998881
vn 0.039724 0.650814 0.758197
vn 0.033465 0.033607 0.998875
vn 0.039724 0.650814 0.758197
vn -0.430337 0.488824 0.758855
vn 0.033465 0.033607 0.998875
vn 0.039724 0.650814 0.758197
vn 0.0 1.0 0.0
vn -0.430337 0.488824 0.758855
vn 0.0 1.0 0.0
vn -0.705671 0.70854 0.000259
vn -0.430337 0.488824 0.758855
vn -0.705671 0.70854 0.000259
vn -0.486909 0.432443 -0.758889
vn -1.0 -0.0 -0.0
vn -0.486909 0.432443 -0.758889
vn -0.64921 -0.040148 -0.759549
vn -1.0 -0.0 -0.0
vn -0.486909 0.432443 -0.758889
vn -0.033465 -0.033607 -0.998875
vn -0.64921 -0.040148 -0.759549
vn -0.033465 -0.033607 -0.998875
vn 0.0 -0.047553 -0.998869
vn -0.64921 -0.040148 -0.759549
vn -0.033465 -0.033607 -0.998875
vn 0.430337 -0.488824 -0.758855
vn 0.0 -0.047553 -0.998869
vn 0.430337 -0.488824 -0.758855
vn 0.64921 -0.040148 -0.759549
vn 0.0 -0.047553 -0.998869
vn 0.430337 -0.488824 -0.758855
vn 0.705671 -0.70854 -0.000259
vn 0.64921 -0.040148 -0.759549
vn 0.705671 -0.70854 -0.000259
vn 1.0 0.0 0.0
vn 0.64921 -0.040148 -0.759549
vn 0.705671 -0.70854 -0.000259
vn 0.486909 -0.432443 0.758889
vn 1.0 0.0 0.0
vn 0.486909 -0.432443 0.758889
vn 0.64921 0.040148 0.759549
vn 1.0 0.0 0.0
vn 0.486909 -0.432443 0.758889
vn 0.033465 0.033607 0.998875
vn 0.64921 0.040148 0.759549
vn 0.033465 0.033607 0.998875
vn -0.0 0.047553 0.998869
vn 0.64921 0.040148 0.759549
vn 0.033465 0.033607 0.998875
vn -0.430337 0.488824 0.758855
vn -0.0 0.047553 0.998869
vn -0.430337 0.488824 0.758855
vn -0.64921 0.040148 0.759549
vn -0.0 0.047553 0.998869
vn -0.430337 0.488824 0.758855
vn -0.705671 0.70854 0.000259
vn -0.64921 0.040148 0.759549
vn -0.705671 0.70854 0.000259
vn -1.0 -0.0 -0.0
vn -0.64921 0.040148 0.759549

# group1, 128 grouped triangles

usemtl test
o group1
g group1

f 1/1/1 2/2/2 9/3/3
f 2/4/4 10/5/5 9/6/6
f 2/7/7 3/8/8 10/9/9
f 3/10/10 11/11/11 10/12/12
f 3/13/13 4/14/14 11/15/15
f 4/16/16 12/17/17 11/18/18
f 4/19/19 5/20/20 12/21/21
f 5/22/22 13/23/23 12/24/24
f 5/25/25 6/26/26 13/27/27
f 6/28/28 14/29/29 13/30/30
f 6/31/31 7/32/32 14/33/33
f 7/34/34 15/35/35 14/36/36
f 7/37/37 8/38/38 15/39/39
f 8/40/40 16/41/41 15/42/42
f 8/43/43 1/44/44 16/45/45
f 1/46/46 9/47/47 16/48/48
f 9/49/49 10/50/50 17/51/51
f 10/52/52 18/53/53 17/54/54
f 10/55/55 11/56/56 18/57/57
f 11/58/58 19/59/59 18/60/60
f 11/61/61 12/62/62 19/63/63
f 12/64/64 20/65/65 19/66/66
f 12/67/67 13/68/68 20/69/69
f 13/70/70 21/71/71 20/72/72
f 13/73/73 14/74/74 21/75/75
f 14/76/76 22/77/77 21/78/78
f 14/79/79 15/80/80 22/81/81
f 15/82/82 23/83/83 22/84/84
f 15/85/85 16/86/86 23/87/87
f 16/88/88 24/89/89 23/90/90
f 16/91/91 9/92/92 24/93/93
f 9/94/94 17/95/95 24/96/96
f 17/97/97 18/98/98 25/99/99
f 18/100/100 26/101/101 25/102/102
f 18/103/103 19/104/104 26/105/105
f 19/106/106 27/107/107 26/108/108
f 19/109/109 20/110/110 27/111/111
f 20/112/112 28/113/113 27/114/114
f 20/115/115 21/116/116 28/117/117
f 21/118/118 29/119/119 28/120/120
f 21/121/121 22/122/122 29/123/123
f 22/124/124 30/125/125 29/126/126
f 22/127/127 23/128/128 30/129/129
f 23/130/130 31/131/131 30/132/132
f 23/133/133 24/134/134 31/135/135
f 24/136/136 32/137/137 31/138/138
f 24/139/139 17/140/140 32/141/141
f 17/142/142 25/143/143 32/144/144
f 25/145/145 26/146/146 33/147/147
f 26/148/148 34/149/149 33/150/150
f 26/151/151 27/152/152 34/153/153
f 27/154/154 35/155/155 34/156/156
f 27/157/157 28/158/158 35/159/159
f 28/160/160 36/161/161 35/162/162
f 28/163/163 29/164/164 36/165/165
f 29/166/166 37/167/167 36/168/168
f 29/169/169 30/170/170 37/171/171
f 30/172/172 38/173/173 37/174/174
f 30/175/175 31/176/176 38/177/177
f 31/178/178 39/179/179 38/180/180
f 31/181/181 32/182/182 39/183/183
f 32/184/184 40/185/185 39/186/186
f 32/187/187 25/188/188 40/189/189
f 25/190/190 33/191/191 40/192/192
f 33/193/193 34/194/194 41/195/195
f 34/196/196 42/197/197 41/198/198
f 34/199/199 35/200/200 42/201/201
f 35/202/202 43/203/203 42/204/204
f 35/205/205 36/206/206 43/207/207
f 36/208/208 44/209/209 43/210/210
f 36/211/211 37/212/212 44/213/213
f 37/214/214 45/215/215 44/216/216
f 37/217/217 38/218/218 45/219/219
f 38/220/220 46/221/221 45/222/222
f 38/223/223 39/224/224 46/225/225
f 39/226/226 47/227/227 46/228/228
f 39/229/229 40/230/230 47/231/231
f 40/232/232 48/233/233 47/234/234
f 40/235/235 33/236/236 48/237/237
f 33/238/238 41/239/239 48/240/240
f 41/241/241 42/242/242 49/243/243
f 42/244/244 50/245/245 49/246/246
f 42/247/247 43/248/248 50/249/249
f 43/250/250 51/251/251 50/252/252
f 43/253/253 44/254/254 51/255/255
f 44/256/256 52/257/257 51/258/258
f 44/259/259 45/260/260 52/261/261
f 45/262/262 53/263/263 52/264/264
f 45/265/265 46/266/266 53/267/267
f 46/268/268 54/269/269 53/270/270
f 46/271/271 47/272/272 54/273/273
f 47/274/274 55/275/275 54/276/276
f 47/277/277 48/278/278 55/279/279
f 48/280/280 56/281/281 55/282/282
f 48/283/283 41/284/284 56/285/285
f 41/286/286 49/287/287 56/288/288
f 49/289/289 50/290/290 57/291/291
f 50/292/292 58/293/293 57/294/294
f 50/295/295 51/296/296 58/297/297
f 51/298/298 59/299/299 58/300/300
f 51/301/301 52/302/302 59/303/303
f 52/304/304 60/305/305 59/306/306
f 52/307/307 53/308/308 60/309/309
f 53/310/310 61/311/311 60/312/312
f 53/313/313 54/314/314 61/315/315
f 54/316/316 62/317/317 61/318/318
f 54/319/319 55/320/320 62/321/321
f 55/322/322 63/323/323 62/324/324
f 55/325/325 56/326/326 63/327/327
f 56/328/328 64/329/329 63/330/330
f 56/331/331 49/332/332 64/333/333
f 49/334/334 57/335/335 64/336/336
f 57/337/337 58/338/338 1/339/339
f 58/340/340 2/341/341 1/342/342
f 58/343/343 59/344/344 2/345/345
f 59/346/346 3/347/347 2/348/348
f 59/349/349 60/350/350 3/351/351
f 60/352/352 4/353/353 3/354/354
f 60/355/355 61/356/356 4/357/357
f 61/358/358 5/359/359 4/360/360
f 61/361/361 62/362/362 5/363/363
f 62/364/364 6/365/365 5/366/366
f 62/367/367 63/368/368 6/369/369
f 63/370/370 7/371/371 6/372/372
f 63/373/373 64/374/374 7/375/375
f 64/376/376 8/377/377 7/378/378
f 64/379/379 57/380/380 8/381/381
f 57/382/382 1/383/383 8/384/384
